<svg width="13" height="17" viewBox="0 0 13 17" fill="none" xmlns="http://www.w3.org/2000/svg">
<mask id="path-1-inside-1_31735_7505" fill="white">
<path fill-rule="evenodd" clip-rule="evenodd" d="M12.2722 3.49486L6.13608 0.0166016L0 3.49486V10.4514L2.43494 11.8316V16.0218L6.13155 13.9271L6.13608 13.9296L12.2722 10.4514V3.49486Z"/>
</mask>
<path fill-rule="evenodd" clip-rule="evenodd" d="M12.2722 3.49486L6.13608 0.0166016L0 3.49486V10.4514L2.43494 11.8316V16.0218L6.13155 13.9271L6.13608 13.9296L12.2722 10.4514V3.49486Z" fill="white" fill-opacity="0.2"/>
<path d="M6.13608 0.0166016L7.04649 -1.58947L6.13608 -2.10553L5.22568 -1.58947L6.13608 0.0166016ZM12.2722 3.49486H14.1183V2.41923L13.1826 1.88879L12.2722 3.49486ZM0 3.49486L-0.910404 1.88879L-1.84615 2.41922V3.49486H0ZM0 10.4514H-1.84615V11.527L-0.910404 12.0574L0 10.4514ZM2.43494 11.8316H4.28109V10.756L3.34534 10.2256L2.43494 11.8316ZM2.43494 16.0218H0.588781V19.1899L3.34512 17.628L2.43494 16.0218ZM6.13155 13.9271L7.04196 12.321L6.1317 11.805L5.22137 12.3209L6.13155 13.9271ZM6.13608 13.9296L5.22567 15.5357L6.13608 16.0518L7.04649 15.5357L6.13608 13.9296ZM12.2722 10.4514L13.1826 12.0574L14.1183 11.527V10.4514H12.2722ZM5.22568 1.62267L11.3618 5.10093L13.1826 1.88879L7.04649 -1.58947L5.22568 1.62267ZM0.910404 5.10093L7.04649 1.62267L5.22568 -1.58947L-0.910404 1.88879L0.910404 5.10093ZM1.84615 10.4514V3.49486H-1.84615V10.4514H1.84615ZM3.34534 10.2256L0.910404 8.84531L-0.910404 12.0574L1.52453 13.4377L3.34534 10.2256ZM4.28109 16.0218V11.8316H0.588781V16.0218H4.28109ZM5.22137 12.3209L1.52475 14.4156L3.34512 17.628L7.04173 15.5333L5.22137 12.3209ZM7.0465 12.3236L7.04196 12.321L5.22113 15.5331L5.22567 15.5357L7.0465 12.3236ZM11.3618 8.84531L5.22568 12.3236L7.04649 15.5357L13.1826 12.0574L11.3618 8.84531ZM10.426 3.49486V10.4514H14.1183V3.49486H10.426Z" fill="#00ADEE" mask="url(#path-1-inside-1_31735_7505)"/>
</svg>
