<svg width="24" height="24" viewBox="0 0 24 24" fill="none" xmlns="http://www.w3.org/2000/svg">
<mask id="mask0_31008_21834" style="mask-type:luminance" maskUnits="userSpaceOnUse" x="0" y="0" width="24" height="24">
<path d="M24 0H0V24H24V0Z" fill="white"/>
</mask>
<g mask="url(#mask0_31008_21834)">
<path d="M0 11.9721C0 5.35814 5.35814 0 11.9721 0C18.586 0 23.9442 5.35814 23.9442 11.9721C23.9442 18.586 18.586 23.9442 11.9721 23.9442C5.35814 23.9302 0 18.5721 0 11.9721Z" fill="#5865F2"/>
<path d="M17.3582 7.10272C16.3396 6.64226 15.2791 6.30737 14.1768 6.12598C14.0372 6.37714 13.8838 6.69807 13.7721 6.96319C12.6 6.78179 11.414 6.78179 10.2419 6.96319C10.1163 6.67016 9.97678 6.39109 9.82329 6.12598C8.72097 6.30737 7.64655 6.64226 6.6419 7.11667C4.63259 10.1167 4.08841 13.033 4.35352 15.9213C5.53957 16.8004 6.8512 17.4702 8.2605 17.8888C8.58143 17.4562 8.8605 17.0097 9.09771 16.5353C8.63724 16.3678 8.20469 16.1585 7.78608 15.9074C7.89771 15.8237 7.99539 15.7399 8.10701 15.6562C10.5768 16.8283 13.4512 16.8283 15.921 15.6562C16.0326 15.7399 16.1303 15.8237 16.2419 15.9074C15.8233 16.1585 15.3768 16.3678 14.9163 16.5353C15.1535 17.0097 15.4326 17.4562 15.7535 17.8888C17.1628 17.4562 18.4884 16.8004 19.6605 15.9213C19.9675 12.5725 19.1024 9.67016 17.3582 7.10272ZM9.4326 14.1353C8.66515 14.1353 8.0512 13.4376 8.0512 12.5864C8.0512 11.7353 8.66515 11.0237 9.4326 11.0237C10.214 11.0237 10.8279 11.7213 10.8279 12.5864C10.814 13.4376 10.214 14.1353 9.4326 14.1353ZM14.5675 14.1353C13.8 14.1353 13.1861 13.4376 13.1861 12.5864C13.1861 11.7353 13.8 11.0237 14.5675 11.0237C15.3489 11.0237 15.9628 11.7213 15.9489 12.5864C15.9349 13.4516 15.3349 14.1353 14.5675 14.1353Z" fill="white"/>
</g>
</svg>
