<svg width="12" height="12" viewBox="0 0 12 12" fill="none" xmlns="http://www.w3.org/2000/svg">
<path d="M6.45097 8.26323L4.02523 5.83716C3.61712 5.429 2.95429 5.43263 2.55068 5.84523L1.33316 7.08988" stroke="#A6A6A6" stroke-width="1.03694" stroke-linejoin="round"/>
<rect x="1.33316" y="1.33398" width="9.33161" height="9.3329" rx="1.03694" stroke="#A6A6A6" stroke-width="0.777706"/>
<path d="M5.97078 8.5196L7.50383 6.98632C7.91857 6.57152 8.59452 6.58302 8.99491 7.01169L10.6665 8.80138" stroke="#A6A6A6" stroke-width="1.03694" stroke-linejoin="round"/>
<path fill-rule="evenodd" clip-rule="evenodd" d="M1.40979 1.50391V7.18903L3.25229 5.34626L6.11406 8.16921L8.19178 6.5617L10.4655 8.56129V1.50391H1.40979ZM7.81056 4.64254C8.31032 4.64254 8.71545 4.23735 8.71545 3.73753C8.71545 3.23771 8.31032 2.83252 7.81056 2.83252C7.31081 2.83252 6.90568 3.23771 6.90568 3.73753C6.90568 4.23735 7.31081 4.64254 7.81056 4.64254Z" fill="#A6A6A6"/>
</svg>
