<svg width="24" height="24" viewBox="0 0 24 24" fill="none" xmlns="http://www.w3.org/2000/svg">
<path fill-rule="evenodd" clip-rule="evenodd" d="M21.9998 12.2278C21.9998 11.5185 21.9345 10.8374 21.8143 10.1826H12.2041V14.0507H17.696C17.4596 15.3008 16.7405 16.3597 15.66 17.0691V19.5778H18.9582C20.8866 17.8369 21.9998 15.2735 21.9998 12.2278Z" fill="#3E82F1"/>
<path fill-rule="evenodd" clip-rule="evenodd" d="M12.2044 21.9993C14.9595 21.9993 17.2695 21.1034 18.9576 19.5763L15.6593 17.0676C14.7451 17.6677 13.5772 18.0219 12.2034 18.0219C9.54543 18.0219 7.29598 16.2631 6.49328 13.8994H3.08545V16.4901C4.76485 19.7581 8.21499 21.9993 12.2044 21.9993Z" fill="#32A753"/>
<path fill-rule="evenodd" clip-rule="evenodd" d="M6.49411 13.9007C6.29031 13.3006 6.174 12.66 6.174 12.0006C6.174 11.3411 6.29031 10.7005 6.49411 10.1004V7.50977H3.08532C2.39414 8.85974 2 10.3868 2 12.0006C2 13.6143 2.39414 15.1414 3.08532 16.4914L6.49411 13.9007Z" fill="#F9BB00"/>
<path fill-rule="evenodd" clip-rule="evenodd" d="M12.2044 5.97739C13.7021 5.97739 15.048 6.48234 16.1054 7.47244L19.0326 4.60386C17.2647 2.99105 14.9547 2 12.2044 2C8.21499 2 4.76485 4.24117 3.08545 7.50918L6.49425 10.0999C7.29694 7.73622 9.5464 5.97739 12.2044 5.97739Z" fill="#E74133"/>
</svg>
