<svg width="150" height="40" viewBox="0 0 150 40" fill="none" xmlns="http://www.w3.org/2000/svg">
<mask id="path-1-inside-1_30793_73836" fill="white">
<path fillRule="evenodd" clipRule="evenodd" d="M17.7265 19.2663L8.86323 14.2422L0 19.2663V29.3146L3.51685 31.3082V37.3607L8.85645 34.3349L8.86323 34.3388L17.7265 29.3146V19.2663Z"/>
</mask>
<path d="M8.86323 14.2422L10.1783 11.9223L8.86323 11.1769L7.5482 11.9223L8.86323 14.2422ZM17.7265 19.2663H20.3931V17.7126L19.0415 16.9465L17.7265 19.2663ZM0 19.2663L-1.31503 16.9465L-2.66667 17.7126V19.2663H0ZM0 29.3146H-2.66667V30.8683L-1.31503 31.6345L0 29.3146ZM3.51685 31.3082H6.18351V29.7545L4.83187 28.9883L3.51685 31.3082ZM3.51685 37.3607H0.850179V41.9369L4.83155 39.6808L3.51685 37.3607ZM8.85645 34.3349L10.1713 32.0149L8.85651 31.2698L7.54174 32.0149L8.85645 34.3349ZM8.86323 34.3388L7.54842 36.6588L8.86337 37.404L10.1783 36.6587L8.86323 34.3388ZM17.7265 29.3146L19.0415 31.6345L20.3931 30.8683V29.3146H17.7265ZM7.5482 16.5621L16.4114 21.5862L19.0415 16.9465L10.1783 11.9223L7.5482 16.5621ZM1.31503 21.5862L10.1783 16.5621L7.5482 11.9223L-1.31503 16.9465L1.31503 21.5862ZM2.66667 29.3146V19.2663H-2.66667V29.3146H2.66667ZM4.83187 28.9883L1.31503 26.9948L-1.31503 31.6345L2.20182 33.628L4.83187 28.9883ZM6.18351 37.3607V31.3082H0.850179V37.3607H6.18351ZM7.54174 32.0149L2.20214 35.0407L4.83155 39.6808L10.1712 36.655L7.54174 32.0149ZM10.178 32.0188L10.1713 32.0149L7.54164 36.6549L7.54842 36.6588L10.178 32.0188ZM16.4114 26.9948L7.5482 32.0189L10.1783 36.6587L19.0415 31.6345L16.4114 26.9948ZM15.0598 19.2663V29.3146H20.3931V19.2663H15.0598Z" fill="#CBCBCB" mask="url(#path-1-inside-1_30793_73836)"/>
<path d="M5.69607 24.6587L6.72514 25.242V26.4087L5.69607 26.992L4.66699 26.4087V25.242L5.69607 24.6587Z" fill="#CBCBCB"/>
<path d="M8.92067 24.6587L9.94975 25.242V26.4087L8.92067 26.992L7.8916 26.4087V25.242L8.92067 24.6587Z" fill="#CBCBCB"/>
<path d="M12.1453 24.6587L13.1744 25.242V26.4087L12.1453 26.992L11.1162 26.4087V25.242L12.1453 24.6587Z" fill="#CBCBCB"/>
<mask id="path-6-inside-2_30793_73836" fill="white">
<path fillRule="evenodd" clipRule="evenodd" d="M8.03917 20.7415L16.9024 25.7656L25.7656 20.7415V10.6932L22.2488 8.69965V2.64709L16.9092 5.67288L16.9024 5.66903L8.03917 10.6932V20.7415Z"/>
</mask>
<path d="M16.9024 25.7656L15.5874 28.0855L16.9024 28.8309L18.2174 28.0855L16.9024 25.7656ZM8.03917 20.7415H5.3725V22.2952L6.72414 23.0614L8.03917 20.7415ZM25.7656 20.7415L27.0807 23.0614L28.4323 22.2952V20.7415H25.7656ZM25.7656 10.6932H28.4323V9.13949L27.0807 8.37331L25.7656 10.6932ZM22.2488 8.69965H19.5821V10.2533L20.9338 11.0195L22.2488 8.69965ZM22.2488 2.64709H24.9154V-1.92909L20.9341 0.32703L22.2488 2.64709ZM16.9092 5.67288L15.5944 7.99287L16.9091 8.73797L18.2239 7.99293L16.9092 5.67288ZM16.9024 5.66903L18.2172 3.34904L16.9023 2.60382L15.5874 3.34916L16.9024 5.66903ZM8.03917 10.6932L6.72414 8.37331L5.3725 9.13949V10.6932H8.03917ZM18.2174 23.4458L9.3542 18.4216L6.72414 23.0614L15.5874 28.0855L18.2174 23.4458ZM24.4506 18.4216L15.5874 23.4458L18.2174 28.0855L27.0807 23.0614L24.4506 18.4216ZM23.099 10.6932V20.7415H28.4323V10.6932H23.099ZM20.9338 11.0195L24.4506 13.0131L27.0807 8.37331L23.5638 6.37977L20.9338 11.0195ZM19.5821 2.64709V8.69965H24.9154V2.64709H19.5821ZM18.2239 7.99293L23.5635 4.96714L20.9341 0.32703L15.5945 3.35282L18.2239 7.99293ZM15.5876 7.98903L15.5944 7.99287L18.224 3.35288L18.2172 3.34904L15.5876 7.98903ZM9.3542 13.0131L18.2174 7.98891L15.5874 3.34916L6.72414 8.37331L9.3542 13.0131ZM10.7058 20.7415V10.6932H5.3725V20.7415H10.7058Z" fill="#CBCBCB" mask="url(#path-6-inside-2_30793_73836)"/>
<path d="M20.3049 14.9976L19.2758 14.4142V13.2476L20.3049 12.6642L21.334 13.2476V14.4142L20.3049 14.9976Z" fill="#CBCBCB"/>
<path d="M17.0803 14.9976L16.0512 14.4142V13.2476L17.0803 12.6642L18.1094 13.2476V14.4142L17.0803 14.9976Z" fill="#CBCBCB"/>
<path d="M13.8557 14.9976L12.8266 14.4142V13.2476L13.8557 12.6642L14.8848 13.2476V14.4142L13.8557 14.9976Z" fill="#CBCBCB"/>
<path d="M32.7848 9.29032H40.8622C42.6687 9.29032 44.2171 9.6086 45.5074 10.2452C46.8149 10.8817 47.8128 11.7763 48.501 12.929C49.1891 14.0817 49.5332 15.4323 49.5332 16.9806C49.5332 18.5462 49.1891 19.914 48.501 21.0839C47.8128 22.2366 46.8149 23.1312 45.5074 23.7677C44.2171 24.4043 42.6687 24.7226 40.8622 24.7226H37.4816V30.3226H32.7848V9.29032ZM40.6558 20.5677C41.9805 20.5677 43.0042 20.2581 43.7268 19.6387C44.4665 19.0194 44.8364 18.1333 44.8364 16.9806C44.8364 15.828 44.4665 14.9505 43.7268 14.3484C43.0042 13.7462 41.9805 13.4452 40.6558 13.4452H37.4816V20.5677H40.6558ZM55.2382 30.3226H50.6447V8.64516H55.2382V30.3226ZM63.9743 30.6839C62.5464 30.6839 61.2733 30.3398 60.155 29.6516C59.0367 28.9806 58.1679 28.043 57.5485 26.8387C56.9292 25.6344 56.6195 24.2753 56.6195 22.7613C56.6195 21.2473 56.9292 19.8882 57.5485 18.6839C58.1679 17.4796 59.0367 16.5419 60.155 15.871C61.2733 15.1828 62.5464 14.8387 63.9743 14.8387C65.9184 14.8387 67.3636 15.4753 68.3098 16.7484V15.2H72.9034V30.3226H68.3098V28.7742C67.3636 30.0473 65.9184 30.6839 63.9743 30.6839ZM64.6969 26.7613C65.8152 26.7613 66.7098 26.3914 67.3808 25.6516C68.0518 24.8946 68.3872 23.9312 68.3872 22.7613C68.3872 21.5914 68.0518 20.6366 67.3808 19.8968C66.7098 19.1398 65.8152 18.7613 64.6969 18.7613C63.613 18.7613 62.7442 19.1398 62.0905 19.8968C61.4367 20.6366 61.1098 21.5914 61.1098 22.7613C61.1098 23.9312 61.4367 24.8946 62.0905 25.6516C62.7442 26.3914 63.613 26.7613 64.6969 26.7613ZM89.9963 15.2L81.2995 36.6194H76.7834L79.5189 29.9097L73.5576 15.2H78.6415L81.9189 24.5419L85.2221 15.2H89.9963ZM109.463 9.29032V30.3226H104.766V21.7806H95.4755V30.3226H90.7788V9.29032H95.4755V17.6258H104.766V9.29032H109.463ZM114.06 7.89677C114.869 7.89677 115.54 8.16344 116.073 8.69677C116.607 9.23011 116.873 9.90108 116.873 10.7097C116.873 11.5183 116.607 12.1892 116.073 12.7226C115.54 13.2559 114.869 13.5226 114.06 13.5226C113.252 13.5226 112.581 13.2559 112.048 12.7226C111.514 12.1892 111.248 11.5183 111.248 10.7097C111.248 9.90108 111.514 9.23011 112.048 8.69677C112.581 8.16344 113.252 7.89677 114.06 7.89677ZM116.357 30.3742H111.764V15.2H116.357V30.3742ZM133.429 15.2L127.622 30.3226H122.848L117.042 15.2H122.022L125.403 25.0581L128.784 15.2H133.429ZM140.499 30.6839C138.985 30.6839 137.625 30.3398 136.421 29.6516C135.234 28.9806 134.305 28.043 133.634 26.8387C132.963 25.6344 132.628 24.2753 132.628 22.7613C132.628 21.2473 132.963 19.8882 133.634 18.6839C134.305 17.4796 135.234 16.5419 136.421 15.871C137.625 15.1828 138.985 14.8387 140.499 14.8387C142.012 14.8387 143.363 15.1828 144.55 15.871C145.754 16.5419 146.692 17.4796 147.363 18.6839C148.034 19.8882 148.369 21.2473 148.369 22.7613C148.369 23.2602 148.335 23.7505 148.266 24.2323H137.195C137.367 25.1097 137.746 25.7892 138.331 26.271C138.916 26.7527 139.638 26.9935 140.499 26.9935C141.152 26.9935 141.729 26.8903 142.228 26.6839C142.744 26.4602 143.096 26.1677 143.286 25.8065H147.905C147.647 26.7699 147.165 27.6129 146.46 28.3355C145.754 29.0753 144.886 29.6516 143.853 30.0645C142.821 30.4774 141.703 30.6839 140.499 30.6839ZM143.879 21.2645C143.69 20.3527 143.303 19.6645 142.718 19.2C142.133 18.7183 141.393 18.4774 140.499 18.4774C139.604 18.4774 138.873 18.7183 138.305 19.2C137.737 19.6645 137.359 20.3527 137.169 21.2645H143.879Z" fill="#CBCBCB"/>
</svg>
