<svg width="295" height="146" viewBox="0 0 295 146" fill="none" xmlns="http://www.w3.org/2000/svg">
<g filter="url(#filter0_d_32529_102682)">
<rect x="10" y="4" width="275" height="126" rx="5" fill="#FAFAFA" shape-rendering="crispEdges"/>
<mask id="path-2-inside-1_32529_102682" fill="white">
<path fill-rule="evenodd" clip-rule="evenodd" d="M102.293 66.4174L95.274 62.4385L88.2546 66.4174V74.3753L91.0406 75.9545V80.7482L95.2696 78.3517L95.274 78.3542L102.293 74.3753V66.4174Z"/>
</mask>
<path d="M95.274 62.4385L96.3154 60.6012L95.274 60.0109L94.2325 60.6012L95.274 62.4385ZM102.293 66.4174H104.405V65.1869L103.335 64.5802L102.293 66.4174ZM88.2546 66.4174L87.2132 64.5802L86.1427 65.1869V66.4174H88.2546ZM88.2546 74.3753H86.1427V75.6057L87.2132 76.2125L88.2546 74.3753ZM91.0406 75.9545H93.1525V74.724L92.082 74.1172L91.0406 75.9545ZM91.0406 80.7482H88.9287V84.3724L92.0818 82.5856L91.0406 80.7482ZM95.2696 78.3517L96.3111 76.5145L95.2698 75.9242L94.2284 76.5143L95.2696 78.3517ZM95.274 78.3542L94.2325 80.1915L95.274 80.7818L96.3154 80.1915L95.274 78.3542ZM102.293 74.3753L103.335 76.2125L104.405 75.6057V74.3753H102.293ZM94.2325 64.2757L101.252 68.2547L103.335 64.5802L96.3154 60.6012L94.2325 64.2757ZM89.2961 68.2547L96.3154 64.2757L94.2325 60.6012L87.2132 64.5802L89.2961 68.2547ZM90.3665 74.3753V66.4174H86.1427V74.3753H90.3665ZM92.082 74.1172L89.2961 72.538L87.2132 76.2125L89.9991 77.7918L92.082 74.1172ZM93.1525 80.7482V75.9545H88.9287V80.7482H93.1525ZM94.2284 76.5143L89.9994 78.9108L92.0818 82.5856L96.3108 80.1891L94.2284 76.5143ZM96.3154 76.517L96.3111 76.5145L94.2282 80.189L94.2325 80.1915L96.3154 76.517ZM101.252 72.538L94.2325 76.517L96.3154 80.1915L103.335 76.2125L101.252 72.538ZM100.181 66.4174V74.3753H104.405V66.4174H100.181Z" fill="#CBCBCB" mask="url(#path-2-inside-1_32529_102682)"/>
<path d="M92.7647 70.6895L93.5797 71.1514V72.0754L92.7647 72.5374L91.9497 72.0754V71.1514L92.7647 70.6895Z" fill="#CBCBCB"/>
<path d="M95.3186 70.6895L96.1336 71.1514V72.0754L95.3186 72.5374L94.5037 72.0754V71.1514L95.3186 70.6895Z" fill="#CBCBCB"/>
<path d="M97.8726 70.6895L98.6876 71.1514V72.0754L97.8726 72.5374L97.0576 72.0754V71.1514L97.8726 70.6895Z" fill="#CBCBCB"/>
<mask id="path-7-inside-2_32529_102682" fill="white">
<path fill-rule="evenodd" clip-rule="evenodd" d="M94.619 67.5865L101.638 71.5654L108.658 67.5865V59.6286L105.872 58.0494V53.2567L101.644 55.6527L101.638 55.6497L94.619 59.6286V67.5865Z"/>
</mask>
<path d="M101.638 71.5654L100.597 73.4027L101.638 73.993L102.68 73.4027L101.638 71.5654ZM94.619 67.5865H92.5071V68.817L93.5776 69.4237L94.619 67.5865ZM108.658 67.5865L109.699 69.4237L110.77 68.817V67.5865H108.658ZM108.658 59.6286H110.77V58.3982L109.699 57.7914L108.658 59.6286ZM105.872 58.0494H103.76V59.2799L104.83 59.8867L105.872 58.0494ZM105.872 53.2567H107.984V49.6325L104.831 51.4193L105.872 53.2567ZM101.644 55.6527L100.602 57.4899L101.643 58.0802L102.685 57.4901L101.644 55.6527ZM101.638 55.6497L102.68 53.8125L101.638 53.222L100.597 53.8124L101.638 55.6497ZM94.619 59.6286L93.5776 57.7914L92.5071 58.3982V59.6286H94.619ZM102.68 69.7282L95.6605 65.7492L93.5776 69.4237L100.597 73.4027L102.68 69.7282ZM107.616 65.7492L100.597 69.7282L102.68 73.4027L109.699 69.4237L107.616 65.7492ZM106.546 59.6286V67.5865H110.77V59.6286H106.546ZM104.83 59.8867L107.616 61.4659L109.699 57.7914L106.913 56.2122L104.83 59.8867ZM103.76 53.2567V58.0494H107.984V53.2567H103.76ZM102.685 57.4901L106.913 55.0941L104.831 51.4193L100.602 53.8153L102.685 57.4901ZM100.597 57.4869L100.602 57.4899L102.685 53.8155L102.68 53.8125L100.597 57.4869ZM95.6605 61.4659L102.68 57.4869L100.597 53.8124L93.5776 57.7914L95.6605 61.4659ZM96.7309 67.5865V59.6286H92.5071V67.5865H96.7309Z" fill="#CBCBCB" mask="url(#path-7-inside-2_32529_102682)"/>
<path d="M104.334 63.0371L103.519 62.5751V61.6512L104.334 61.1892L105.149 61.6512V62.5751L104.334 63.0371Z" fill="#CBCBCB"/>
<path d="M101.78 63.0371L100.965 62.5751V61.6512L101.78 61.1892L102.595 61.6512V62.5751L101.78 63.0371Z" fill="#CBCBCB"/>
<path d="M99.2258 63.0371L98.4108 62.5751V61.6512L99.2258 61.1892L100.041 61.6512V62.5751L99.2258 63.0371Z" fill="#CBCBCB"/>
<path d="M114.218 58.1826H120.615C122.045 58.1826 123.272 58.4347 124.293 58.9388C125.329 59.443 126.119 60.1515 126.664 61.0644C127.209 61.9772 127.482 63.0468 127.482 64.2731C127.482 65.513 127.209 66.5962 126.664 67.5227C126.119 68.4356 125.329 69.1441 124.293 69.6482C123.272 70.1523 122.045 70.4044 120.615 70.4044H117.937V74.8394H114.218V58.1826ZM120.451 67.1139C121.5 67.1139 122.311 66.8687 122.883 66.3782C123.469 65.8877 123.762 65.186 123.762 64.2731C123.762 63.3602 123.469 62.6653 122.883 62.1884C122.311 61.7116 121.5 61.4731 120.451 61.4731H117.937V67.1139H120.451ZM132 74.8394H128.362V57.6717H132V74.8394ZM138.919 75.1255C137.788 75.1255 136.779 74.853 135.894 74.308C135.008 73.7766 134.32 73.0341 133.83 72.0803C133.339 71.1265 133.094 70.0502 133.094 68.8511C133.094 67.6521 133.339 66.5757 133.83 65.622C134.32 64.6682 135.008 63.9256 135.894 63.3943C136.779 62.8493 137.788 62.5768 138.919 62.5768C140.458 62.5768 141.603 63.0809 142.352 64.0891V62.8629H145.99V74.8394H142.352V73.6131C141.603 74.6214 140.458 75.1255 138.919 75.1255ZM139.491 72.019C140.376 72.019 141.085 71.726 141.616 71.1402C142.148 70.5407 142.413 69.7777 142.413 68.8511C142.413 67.9246 142.148 67.1684 141.616 66.5826C141.085 65.983 140.376 65.6833 139.491 65.6833C138.632 65.6833 137.944 65.983 137.427 66.5826C136.909 67.1684 136.65 67.9246 136.65 68.8511C136.65 69.7777 136.909 70.5407 137.427 71.1402C137.944 71.726 138.632 72.019 139.491 72.019ZM159.527 62.8629L152.639 79.8262H149.063L151.229 74.5124L146.508 62.8629H150.534L153.13 70.2613L155.746 62.8629H159.527ZM174.944 58.1826V74.8394H171.224V68.0745H163.866V74.8394H160.147V58.1826H163.866V64.784H171.224V58.1826H174.944ZM178.585 57.079C179.225 57.079 179.757 57.2902 180.179 57.7126C180.601 58.135 180.813 58.6663 180.813 59.3067C180.813 59.9471 180.601 60.4785 180.179 60.9009C179.757 61.3232 179.225 61.5344 178.585 61.5344C177.944 61.5344 177.413 61.3232 176.991 60.9009C176.568 60.4785 176.357 59.9471 176.357 59.3067C176.357 58.6663 176.568 58.135 176.991 57.7126C177.413 57.2902 177.944 57.079 178.585 57.079ZM180.404 74.8803H176.766V62.8629H180.404V74.8803ZM193.924 62.8629L189.325 74.8394H185.544L180.946 62.8629H184.89L187.568 70.6701L190.245 62.8629H193.924ZM199.523 75.1255C198.324 75.1255 197.247 74.853 196.294 74.308C195.353 73.7766 194.618 73.0341 194.086 72.0803C193.555 71.1265 193.289 70.0502 193.289 68.8511C193.289 67.6521 193.555 66.5757 194.086 65.622C194.618 64.6682 195.353 63.9256 196.294 63.3943C197.247 62.8493 198.324 62.5768 199.523 62.5768C200.722 62.5768 201.791 62.8493 202.732 63.3943C203.685 63.9256 204.428 64.6682 204.959 65.622C205.491 66.5757 205.756 67.6521 205.756 68.8511C205.756 69.2463 205.729 69.6346 205.675 70.0161H196.907C197.043 70.711 197.343 71.2492 197.806 71.6307C198.269 72.0122 198.842 72.2029 199.523 72.2029C200.041 72.2029 200.497 72.1212 200.892 71.9577C201.301 71.7805 201.58 71.5489 201.73 71.2628H205.388C205.184 72.0258 204.803 72.6934 204.244 73.2657C203.685 73.8516 202.997 74.308 202.18 74.635C201.362 74.962 200.477 75.1255 199.523 75.1255ZM202.2 67.6658C202.05 66.9436 201.744 66.3986 201.28 66.0307C200.817 65.6492 200.231 65.4585 199.523 65.4585C198.814 65.4585 198.235 65.6492 197.786 66.0307C197.336 66.3986 197.036 66.9436 196.886 67.6658H202.2Z" fill="#CBCBCB"/>
</g>
<defs>
<filter id="filter0_d_32529_102682" x="0" y="0" width="295" height="146" filterUnits="userSpaceOnUse" color-interpolation-filters="sRGB">
<feFlood flood-opacity="0" result="BackgroundImageFix"/>
<feColorMatrix in="SourceAlpha" type="matrix" values="0 0 0 0 0 0 0 0 0 0 0 0 0 0 0 0 0 0 127 0" result="hardAlpha"/>
<feOffset dy="6"/>
<feGaussianBlur stdDeviation="5"/>
<feComposite in2="hardAlpha" operator="out"/>
<feColorMatrix type="matrix" values="0 0 0 0 0 0 0 0 0 0 0 0 0 0 0 0 0 0 0.05 0"/>
<feBlend mode="normal" in2="BackgroundImageFix" result="effect1_dropShadow_32529_102682"/>
<feBlend mode="normal" in="SourceGraphic" in2="effect1_dropShadow_32529_102682" result="shape"/>
</filter>
</defs>
</svg>
