<svg width="20" height="20" viewBox="0 0 20 20" fill="none" xmlns="http://www.w3.org/2000/svg">
<path d="M10.0034 6.19135C11.8861 6.19135 13.4141 7.80519 13.4141 9.79367C13.4141 10.262 13.3254 10.7015 13.1685 11.1121L15.1603 13.2159C16.1903 12.3081 17.002 11.1337 17.5 9.79367C16.3199 6.63083 13.4072 4.39018 9.99659 4.39018C9.04161 4.39018 8.12756 4.5703 7.28172 4.89451L8.75512 6.45071C9.14393 6.28501 9.56003 6.19135 10.0034 6.19135ZM3.99216 5.08003L4.73738 5.86714L5.05116 6.19855C3.91883 7.12795 3.03206 8.36715 2.5 9.79367C3.68008 12.9565 6.59277 15.1972 10.0034 15.1972C11.0607 15.1972 12.0703 14.981 12.9911 14.592L13.2776 14.8946L14.4662 16.1428L15.3325 15.2278L4.85846 4.16504L3.99216 5.08003ZM6.9543 8.20865L8.0116 9.32537C7.97749 9.47667 7.95703 9.63517 7.95703 9.79367C7.95703 10.9896 8.87108 11.9551 10.0034 11.9551C10.1535 11.9551 10.3035 11.9335 10.4468 11.8974L11.5041 13.0141C11.0471 13.2519 10.5423 13.396 10.0034 13.396C8.12074 13.396 6.59277 11.7822 6.59277 9.79367C6.59277 9.2245 6.7292 8.69136 6.9543 8.20865ZM9.89427 7.64669L12.043 9.91615L12.0566 9.80088C12.0566 8.6049 11.1426 7.63948 10.0102 7.63948L9.89427 7.64669Z" fill="#656565"/>
<path d="M14.7458 15.6219L4.21289 4.58496" stroke="#656565" stroke-width="1.25" stroke-linecap="round" stroke-linejoin="round"/>
</svg>
